HIERARCHY
ROOT Hips
{
	OFFSET 0.000000 0.000000 0.000000
	CHANNELS 6 Xposition Yposition Zposition Zrotation Yrotation Xrotation 
	JOINT LHipJoint
	{
		OFFSET 0.000000 0.000000 0.000000
		CHANNELS 3 Zrotation Yrotation Xrotation
		JOINT LeftUpLeg
		{
			OFFSET 1.363060 -1.794630 0.839290
			CHANNELS 3 Zrotation Yrotation Xrotation
			JOINT LeftLeg
			{
				OFFSET 2.448110 -6.726130 0.000000
				CHANNELS 3 Zrotation Yrotation Xrotation
				JOINT LeftFoot
				{
					OFFSET 2.562200 -7.039590 0.000000
					CHANNELS 3 Zrotation Yrotation Xrotation
					JOINT LeftToeBase
					{
						OFFSET 0.157640 -0.433110 2.322550
						CHANNELS 3 Zrotation Yrotation Xrotation
						End Site
						{
							OFFSET 0.000000 0.000000 0.000000
						}
					}
				}
			}
		}
	}
	JOINT RHipJoint
	{
		OFFSET 0.000000 0.000000 0.000000
		CHANNELS 3 Zrotation Yrotation Xrotation
		JOINT RightUpLeg
		{
			OFFSET -1.305520 -1.794630 0.839290
			CHANNELS 3 Zrotation Yrotation Xrotation
			JOINT RightLeg
			{
				OFFSET -2.542530 -6.985550 0.000000
				CHANNELS 3 Zrotation Yrotation Xrotation
				JOINT RightFoot
				{
					OFFSET -2.568260 -7.056230 0.000000
					CHANNELS 3 Zrotation Yrotation Xrotation
					JOINT RightToeBase
					{
						OFFSET -0.164730 -0.452590 2.363150
						CHANNELS 3 Zrotation Yrotation Xrotation
						End Site
						{
							OFFSET 0.000000 0.000000 0.000000
						}
					}
				}
			}
		}
	}
	JOINT LowerBack
	{
		OFFSET 0.000000 0.000000 0.000000
		CHANNELS 3 Zrotation Yrotation Xrotation
		JOINT Spine
		{
			OFFSET 0.028270 2.035590 -0.193380
			CHANNELS 3 Zrotation Yrotation Xrotation
			JOINT Spine1
			{
				OFFSET 0.056720 2.048850 -0.042750
				CHANNELS 3 Zrotation Yrotation Xrotation
				JOINT Neck
				{
					OFFSET 0.000000 0.000000 0.000000
					CHANNELS 3 Zrotation Yrotation Xrotation
					JOINT Neck1
					{
						OFFSET -0.054170 1.746240 0.172020
						CHANNELS 3 Zrotation Yrotation Xrotation
						JOINT Head
						{
							OFFSET 0.104070 1.761360 -0.123970
							CHANNELS 3 Zrotation Yrotation Xrotation
							End Site
							{
								OFFSET 0.000000 0.000000 0.000000
							}
						}
					}
				}
				JOINT LeftShoulder
				{
					OFFSET 0.000000 0.000000 0.000000
					CHANNELS 3 Zrotation Yrotation Xrotation
					JOINT LeftArm
					{
						OFFSET 3.362410 1.200890 -0.311210
						CHANNELS 3 Zrotation Yrotation Xrotation
						JOINT LeftForeArm
						{
							OFFSET 4.983000 -0.000000 -0.000000
							CHANNELS 3 Zrotation Yrotation Xrotation
							JOINT LeftHand
							{
								OFFSET 3.483560 -0.000000 -0.000000
								CHANNELS 3 Zrotation Yrotation Xrotation
								JOINT LeftFingerBase
								{
									OFFSET 0.000000 0.000000 0.000000
									CHANNELS 3 Zrotation Yrotation Xrotation
									JOINT LeftHandIndex1
									{
										OFFSET 0.715260 -0.000000 -0.000000
										CHANNELS 3 Zrotation Yrotation Xrotation
										End Site
										{
											OFFSET 0.000000 0.000000 0.000000
										}
									}
								}
								JOINT LThumb
								{
									OFFSET 0.000000 0.000000 0.000000
									CHANNELS 3 Zrotation Yrotation Xrotation
									End Site
									{
										OFFSET 0.000000 0.000000 0.000000
									}
								}
							}
						}
					}
				}
				JOINT RightShoulder
				{
					OFFSET 0.000000 0.000000 0.000000
					CHANNELS 3 Zrotation Yrotation Xrotation
					JOINT RightArm
					{
						OFFSET -3.136600 1.374050 -0.404650
						CHANNELS 3 Zrotation Yrotation Xrotation
						JOINT RightForeArm
						{
							OFFSET -5.241900 -0.000000 -0.000000
							CHANNELS 3 Zrotation Yrotation Xrotation
							JOINT RightHand
							{
								OFFSET -3.444170 -0.000000 -0.000000
								CHANNELS 3 Zrotation Yrotation Xrotation
								JOINT RightFingerBase
								{
									OFFSET 0.000000 0.000000 0.000000
									CHANNELS 3 Zrotation Yrotation Xrotation
									JOINT RightHandIndex1
									{
										OFFSET -0.622530 -0.000000 -0.000000
										CHANNELS 3 Zrotation Yrotation Xrotation
										End Site
										{
											OFFSET 0.000000 0.000000 0.000000
										}
									}
								}
								JOINT RThumb
								{
									OFFSET 0.000000 0.000000 0.000000
									CHANNELS 3 Zrotation Yrotation Xrotation
									End Site
									{
										OFFSET 0.000000 0.000000 0.000000
									}
								}
							}
						}
					}
				}
			}
		}
	}
}
MOTION
Frames: 7
Frame Time: 0.008333
3.801911 17.702579 -20.720303 -18.982240 -71.670930 25.554217 -0.041464 -4.539862 -2.364264 -24.636531 -6.546295 -12.395288 -0.763367 11.302892 27.480144 3.616689 -15.717347 4.967388 0.460000 4.350700 12.065400 -3.383348 4.258622 -3.321046 8.343637 26.361138 -28.779683 0.334032 -13.197583 27.417038 -1.460715 -0.158921 6.378050 -2.584900 9.990700 -28.946600 0.953470 0.296052 4.318091 0.899427 0.454932 -4.680252 1.270824 -0.035453 -12.529979 -24.073238 -7.558771 1.632277 10.445618 -18.109951 9.433650 18.841900 -10.378600 6.134100 -8.689654 -10.534594 2.656278 -66.452329 2.457038 37.640834 55.379233 -48.505269 -32.576501 0.276764 -1.638253 -55.513434 22.385535 8.154629 4.046400 -7.125000 0.000000 0.000000 -2.956700 40.121000 0.356000 5.409874 4.744095 0.705353 58.994853 -4.380549 30.391882 -44.384882 47.338675 -24.931707 0.117355 1.561701 -13.582776 -19.469012 -26.370400 9.631500 7.125000 0.000000 0.000000 11.946500 -58.929500 -4.104000 
3.719377 17.709420 -20.695651 -18.142001 -70.662303 24.791689 -0.043460 -4.492918 -2.319484 -24.582399 -6.873912 -11.904598 -0.813143 11.207021 27.261283 3.660269 -16.369692 5.388392 0.517400 4.610400 12.800600 -3.333011 4.294874 -3.354184 8.448278 26.159803 -29.164564 0.569492 -12.800862 26.305327 -1.796776 1.058681 6.973339 -2.630400 10.071200 -29.207600 0.981043 0.272903 4.352453 0.899446 0.426879 -4.688163 1.253059 -0.053601 -12.587591 -24.050017 -7.715890 1.717135 10.466313 -18.365117 9.304112 18.807600 -10.463000 6.133300 -8.688138 -10.538513 2.661929 -66.499957 2.325263 37.713794 55.276903 -48.461734 -32.462906 0.267910 -1.629233 -55.243421 22.499832 8.102214 4.041800 -7.125000 0.000000 0.000000 -2.857100 40.067100 0.347800 5.415703 4.760316 0.716139 59.007104 -4.422146 30.272839 -44.337971 47.315254 -24.899140 0.119692 1.558793 -13.533492 -19.555073 -26.364487 9.673200 7.125000 0.000000 0.000000 11.847800 -58.940500 -4.072500 
3.637168 17.716262 -20.669045 -17.370789 -69.687614 24.105952 -0.044467 -4.448058 -2.275683 -24.542452 -7.178573 -11.431346 -0.864342 11.109643 27.040094 3.693719 -17.007727 5.856295 0.583900 4.892800 13.603200 -3.282008 4.328987 -3.388136 8.580585 25.932714 -29.540476 0.792912 -12.396962 25.194254 -2.108844 2.231018 7.564454 -2.661200 10.125200 -29.383200 0.990589 0.243797 4.387580 0.904158 0.388306 -4.698610 1.261472 -0.072090 -12.648355 -24.050693 -7.857514 1.774078 10.481361 -18.585501 9.186263 18.775500 -10.531700 6.134800 -8.685173 -10.543103 2.664658 -66.558788 2.226423 37.729056 55.185118 -48.422878 -32.364347 0.260037 -1.621177 -54.983544 22.598515 8.073032 4.044600 -7.125000 0.000000 0.000000 -2.773500 40.038000 0.339600 5.423601 4.777055 0.726195 58.995332 -4.433829 30.216659 -44.291135 47.290050 -24.862579 0.123043 1.556792 -13.500627 -19.648026 -26.379770 9.726000 7.125000 0.000000 0.000000 11.752100 -58.974900 -4.048800 
3.555285 17.723212 -20.640483 -16.688243 -68.732599 23.511267 -0.044357 -4.404639 -2.232725 -24.502110 -7.471665 -10.967850 -0.916711 11.009889 26.816267 3.717326 -17.619248 6.360731 0.654800 5.175700 14.410500 -3.230095 4.360616 -3.421534 8.749436 25.696071 -29.900869 1.003485 -11.988260 24.085676 -2.389052 3.322198 8.139451 -2.685500 10.167700 -29.521400 1.002918 0.204823 4.426836 0.915339 0.334677 -4.713273 1.290279 -0.095271 -12.721468 -24.071329 -7.979856 1.811815 10.489618 -18.764749 9.083206 18.745300 -10.583500 6.135800 -8.679662 -10.547946 2.662868 -66.656968 2.180376 37.676382 55.107724 -48.390982 -32.284155 0.253943 -1.614091 -54.714535 22.659645 8.078193 4.055600 -7.125000 0.000000 0.000000 -2.727000 40.044800 0.333400 5.433615 4.794023 0.735212 58.963763 -4.425275 30.227866 -44.244903 47.263732 -24.821968 0.127388 1.555152 -13.481525 -19.756186 -26.407780 9.791500 7.125000 0.000000 0.000000 11.645200 -59.025700 -4.025600 
3.473728 17.730380 -20.609750 -16.070067 -67.776661 22.986903 -0.043485 -4.362219 -2.190151 -24.455535 -7.759003 -10.514373 -0.970841 10.907015 26.587734 3.732867 -18.218208 6.906579 0.728300 5.452900 15.204900 -3.177178 4.389267 -3.454759 8.953394 25.437996 -30.250574 1.199745 -11.577124 22.986466 -2.638339 4.331500 8.692439 -2.705400 10.202200 -29.634000 1.021383 0.148264 4.466239 0.934770 0.254996 -4.733317 1.343591 -0.127923 -12.809749 -24.122378 -8.079377 1.841457 10.495827 -18.903483 8.992905 18.726700 -10.619900 6.135300 -8.672010 -10.552815 2.656762 -66.784930 2.191979 37.560669 55.048931 -48.367920 -32.226534 0.249533 -1.607845 -54.452296 22.694078 8.105370 4.071900 -7.125000 0.000000 0.000000 -2.706300 40.074800 0.328900 5.445946 4.809954 0.742637 58.906641 -4.401851 30.312617 -44.201379 47.237743 -24.779358 0.132042 1.554520 -13.474334 -19.857912 -26.442644 9.856600 7.125000 0.000000 0.000000 11.548800 -59.082700 -4.007500 
3.391845 17.737656 -20.577062 -15.493032 -66.820343 22.501528 -0.043183 -4.319637 -2.146367 -24.410057 -8.033179 -10.061375 -1.027024 10.800078 26.351880 3.740467 -18.809259 7.493638 0.804100 5.723200 15.983300 -3.124969 4.414084 -3.488023 9.194210 25.156956 -30.581166 1.379031 -11.169201 21.911102 -2.855755 5.253453 9.192436 -2.721100 10.229300 -29.722400 1.029494 0.055746 4.512657 0.976362 0.120648 -4.761907 1.476450 -0.174822 -12.921072 -24.255836 -8.131399 1.844322 10.490008 -18.957152 8.939036 18.727300 -10.625700 6.140100 -8.657920 -10.559798 2.639946 -67.004271 2.289922 37.326993 55.011281 -48.356105 -32.194114 0.246324 -1.600366 -54.198351 22.715510 8.135001 4.086400 -7.125000 0.000000 0.000000 -2.698700 40.106500 0.325800 5.464935 4.822594 0.747078 58.768183 -4.355824 30.540203 -44.163317 47.212156 -24.735156 0.137222 1.556555 -13.487264 -19.959886 -26.492441 9.928200 7.125000 0.000000 0.000000 11.459500 -59.157200 -3.996500 
3.309310 17.744932 -20.542311 -14.947285 -65.860917 22.043712 -0.043523 -4.276006 -2.100724 -24.368655 -8.300918 -9.598797 -1.086089 10.687772 26.105698 3.739663 -19.382950 8.128341 0.885300 5.997800 16.778100 -3.074102 4.433655 -3.521902 9.482271 24.836271 -30.897656 1.539153 -10.772180 20.879536 -3.044558 6.104615 9.610939 -2.729000 10.242800 -29.766700 1.031494 -0.062867 4.565773 1.031366 -0.052216 -4.796570 1.655466 -0.233254 -13.047713 -24.421689 -8.151996 1.816487 10.468853 -18.944011 8.914494 18.727800 -10.605300 6.145600 -8.639952 -10.565897 2.617527 -67.251607 2.461222 37.047044 55.008917 -48.359597 -32.198285 0.243938 -1.592261 -53.989786 22.753990 8.150042 4.097700 -7.125000 0.000000 0.000000 -2.674500 40.123000 0.321800 5.489316 4.833839 0.749366 58.578945 -4.300578 30.859100 -44.133605 47.188966 -24.693712 0.140652 1.561014 -13.502455 -20.003025 -26.517705 9.962100 7.125000 0.000000 0.000000 11.423400 -59.196400 -3.994400 
